# xmcd CD database file
#
# Track frame offsets:
#	150
#	10780
#	30870
#	39650
#	53370
#	64762
#	89197
#	105572
#	116847
#	123742
#	134675
#	145682
#
# Disc length: 2108 seconds
#
# Revision: 0
# Processed by: cddbd v1.5PL3 Copyright (c) Steve Scherf et al.
# Submitted via: CDex 1.51
#
DISCID=a4083a0c
DTITLE=休みの国 - 休みの国
DYEAR=1969
DGENRE=Folk
TTITLE0=第五氷河期
TTITLE1=マザー
TTITLE2=Union Strip
TTITLE3=ドクター・クークー
TTITLE4=Let's Drop Dead
TTITLE5=マリー・ジェーン
TTITLE6=飛べないフクロウ
TTITLE7=朝のダウンタウン
TTITLE8=楽しいさすらい人
TTITLE9=悪魔巣取金愚
TTITLE10=旅するおばさん
TTITLE11=追放の歌
EXTD=YEAR: 1969
EXTT0=
EXTT1=
EXTT2=
EXTT3=
EXTT4=
EXTT5=
EXTT6=
EXTT7=
EXTT8=
EXTT9=
EXTT10=
EXTT11=
PLAYORDER=
